<?xml version="1.0" encoding="UTF-8" standalone="no"?><!-- Generator: Gravit.io --><svg xmlns="http://www.w3.org/2000/svg" xmlns:xlink="http://www.w3.org/1999/xlink" style="isolation:isolate" viewBox="0 0 1680 450" width="1680pt" height="450pt"><defs><clipPath id="_clipPath_pa4yNRP0V5wxm8q0RQKxZALOFTkyyeY1"><rect width="1680" height="450"/></clipPath></defs><g clip-path="url(#_clipPath_pa4yNRP0V5wxm8q0RQKxZALOFTkyyeY1)"><path d=" M 1608.26 191.12 L 1608.26 191.12 L 1597.46 191.36 L 1597.46 191.36 Q 1596.98 208.16 1596.26 218.84 L 1596.26 218.84 L 1596.26 218.84 Q 1595.54 229.52 1591.58 235.04 L 1591.58 235.04 L 1591.58 235.04 Q 1587.62 240.56 1580.54 240.56 L 1580.54 240.56 L 1580.54 240.56 Q 1573.46 240.56 1570.34 240.08 L 1570.34 240.08 L 1570.34 240.08 Q 1573.7 223.28 1574.66 193.04 L 1574.66 193.04 L 1574.66 193.04 Q 1563.86 193.76 1550.06 193.76 L 1550.06 193.76 L 1550.06 193.76 Q 1536.26 193.76 1531.34 188.72 L 1531.34 188.72 L 1531.34 188.72 Q 1526.42 183.68 1526.42 173.6 L 1526.42 173.6 L 1526.42 173.6 Q 1526.42 172.88 1526.54 171.44 L 1526.54 171.44 L 1526.54 171.44 Q 1526.66 170 1526.66 169.28 L 1526.66 169.28 L 1526.66 169.28 Q 1541.3 171.2 1556.42 171.2 L 1556.42 171.2 L 1556.42 171.2 Q 1571.54 171.2 1575.14 170.96 L 1575.14 170.96 L 1575.14 170.96 Q 1575.14 157.28 1576.1 145.16 L 1576.1 145.16 L 1576.1 145.16 Q 1577.06 133.04 1581.14 127.52 L 1581.14 127.52 L 1581.14 127.52 Q 1585.22 122 1592.42 122 L 1592.42 122 L 1592.42 122 Q 1599.62 122 1602.26 122.48 L 1602.26 122.48 L 1602.26 122.48 Q 1598.42 141.68 1597.94 169.52 L 1597.94 169.52 L 1597.94 169.52 Q 1612.34 168.56 1624.46 168.56 L 1624.46 168.56 L 1624.46 168.56 Q 1636.58 168.56 1641.5 173.6 L 1641.5 173.6 L 1641.5 173.6 Q 1646.42 178.64 1646.42 188.72 L 1646.42 188.72 L 1646.42 188.72 Q 1646.42 189.44 1646.3 190.88 L 1646.3 190.88 L 1646.3 190.88 Q 1646.18 192.32 1646.18 193.04 L 1646.18 193.04 L 1646.18 193.04 Q 1631.54 191.12 1608.26 191.12 Z  M 457.46 147.68 L 457.46 147.68 L 457.46 147.68 Q 464.66 154.16 473.42 160.52 L 473.42 160.52 L 473.42 160.52 Q 482.18 166.88 490.94 173.36 L 490.94 173.36 L 490.94 173.36 Q 499.7 179.84 506.9 186.56 L 506.9 186.56 L 506.9 186.56 Q 523.22 201.68 523.22 219.92 L 523.22 219.92 L 523.22 219.92 Q 523.22 242.48 506.06 257.6 L 506.06 257.6 L 506.06 257.6 Q 488.9 272.72 460.82 272.72 L 460.82 272.72 L 460.82 272.72 Q 432.74 272.72 417.62 260 L 417.62 260 L 417.62 260 Q 402.5 247.28 402.5 229.76 L 402.5 229.76 L 402.5 229.76 Q 402.5 216.8 410.18 208.76 L 410.18 208.76 L 410.18 208.76 Q 417.86 200.72 430.1 200.72 L 430.1 200.72 L 430.1 200.72 Q 433.46 200.72 436.58 201.68 L 436.58 201.68 L 436.58 201.68 Q 429.14 212.96 429.14 225.8 L 429.14 225.8 L 429.14 225.8 Q 429.14 238.64 438.02 247.76 L 438.02 247.76 L 438.02 247.76 Q 446.9 256.88 464.66 256.88 L 464.66 256.88 L 464.66 256.88 Q 477.38 256.88 487.34 249.08 L 487.34 249.08 L 487.34 249.08 Q 497.3 241.28 497.3 227.36 L 497.3 227.36 L 497.3 227.36 Q 497.3 218.24 491.3 209.48 L 491.3 209.48 L 491.3 209.48 Q 485.3 200.72 476.42 194 L 476.42 194 L 476.42 194 Q 467.54 187.28 456.98 179 L 456.98 179 L 456.98 179 Q 446.42 170.72 437.54 163.04 L 437.54 163.04 L 437.54 163.04 Q 428.66 155.36 422.66 144.32 L 422.66 144.32 L 422.66 144.32 Q 416.66 133.28 416.66 121.28 L 416.66 121.28 L 416.66 121.28 Q 416.66 98.48 432.14 85.16 L 432.14 85.16 L 432.14 85.16 Q 447.62 71.84 476.9 71.84 L 476.9 71.84 L 476.9 71.84 Q 500.66 71.84 514.22 84.44 L 514.22 84.44 L 514.22 84.44 Q 527.78 97.04 527.78 110.6 L 527.78 110.6 L 527.78 110.6 Q 527.78 124.16 520.46 132.8 L 520.46 132.8 L 520.46 132.8 Q 513.14 141.44 500.42 141.44 L 500.42 141.44 L 500.42 141.44 Q 496.1 141.44 492.02 140.48 L 492.02 140.48 L 492.02 140.48 Q 503.78 128 503.78 114.08 L 503.78 114.08 L 503.78 114.08 Q 503.78 100.16 495.14 93.08 L 495.14 93.08 L 495.14 93.08 Q 486.5 86 473.18 86 L 473.18 86 L 473.18 86 Q 459.86 86 450.5 93.68 L 450.5 93.68 L 450.5 93.68 Q 441.14 101.36 441.14 116.96 L 441.14 116.96 L 441.14 116.96 Q 441.14 132.56 457.46 147.68 Z  M 590.66 192.56 L 590.66 192.56 Q 598.58 165.44 615.02 146.84 L 615.02 146.84 L 615.02 146.84 Q 631.46 128.24 645.86 128.24 L 645.86 128.24 L 645.86 128.24 Q 660.26 128.24 666.26 137 L 666.26 137 L 666.26 137 Q 672.26 145.76 672.26 160.76 L 672.26 160.76 L 672.26 160.76 Q 672.26 175.76 667.58 202.88 L 667.58 202.88 L 667.58 202.88 Q 662.9 230 662.9 242.36 L 662.9 242.36 L 662.9 242.36 Q 662.9 254.72 666.02 260.36 L 666.02 260.36 L 666.02 260.36 Q 669.14 266 676.58 270.08 L 676.58 270.08 L 676.58 270.08 Q 673.46 270.32 667.7 270.32 L 667.7 270.32 L 667.7 270.32 Q 652.34 270.32 645.02 263.96 L 645.02 263.96 L 645.02 263.96 Q 637.7 257.6 637.7 242.24 L 637.7 242.24 L 637.7 242.24 Q 637.7 233.36 642.5 206.36 L 642.5 206.36 L 642.5 206.36 Q 647.3 179.36 647.3 166.64 L 647.3 166.64 L 647.3 166.64 Q 647.3 150.8 636.26 150.8 L 636.26 150.8 L 636.26 150.8 Q 629.78 150.8 621.86 157.64 L 621.86 157.64 L 621.86 157.64 Q 613.94 164.48 606.62 176.12 L 606.62 176.12 L 606.62 176.12 Q 599.3 187.76 594.38 205.64 L 594.38 205.64 L 594.38 205.64 Q 589.46 223.52 589.46 240.92 L 589.46 240.92 L 589.46 240.92 Q 589.46 258.32 590.9 266.72 L 590.9 266.72 L 590.9 266.72 Q 585.14 267.2 584.42 267.2 L 584.42 267.2 L 584.42 267.2 Q 573.14 267.2 567.74 262.4 L 567.74 262.4 L 567.74 262.4 Q 562.34 257.6 562.34 247.4 L 562.34 247.4 L 562.34 247.4 Q 562.34 237.2 566.66 208.16 L 566.66 208.16 L 566.66 208.16 Q 579.38 118.88 579.38 72.56 L 579.38 72.56 L 579.38 72.56 Q 579.38 51.68 576.5 44.48 L 576.5 44.48 L 576.5 44.48 Q 590.42 49.52 596.06 59.36 L 596.06 59.36 L 596.06 59.36 Q 601.7 69.2 601.7 86.48 L 601.7 86.48 L 601.7 86.48 Q 601.7 98.48 597.02 136.88 L 597.02 136.88 L 597.02 136.88 Q 592.34 175.28 590.66 192.56 L 590.66 192.56 Z  M 745.22 172.76 L 745.22 172.76 L 745.22 172.76 Q 738.26 184.88 734.54 197.48 L 734.54 197.48 L 734.54 197.48 Q 730.82 210.08 730.82 221.6 L 730.82 221.6 L 730.82 221.6 Q 730.82 233.12 735.98 241.16 L 735.98 241.16 L 735.98 241.16 Q 741.14 249.2 750.74 249.2 L 750.74 249.2 L 750.74 249.2 Q 764.18 249.2 775.94 234.44 L 775.94 234.44 L 775.94 234.44 Q 787.7 219.68 794.06 198.68 L 794.06 198.68 L 794.06 198.68 Q 800.42 177.68 800.42 159.8 L 800.42 159.8 L 800.42 159.8 Q 800.42 141.92 798.98 130.4 L 798.98 130.4 L 798.98 130.4 Q 804.74 129.92 806.18 129.92 L 806.18 129.92 L 806.18 129.92 Q 826.58 129.92 826.58 150.8 L 826.58 150.8 L 826.58 150.8 Q 826.58 155.36 820.82 187.88 L 820.82 187.88 L 820.82 187.88 Q 815.06 220.4 815.06 239.96 L 815.06 239.96 L 815.06 239.96 Q 815.06 259.52 822.5 274.64 L 822.5 274.64 L 822.5 274.64 Q 807.38 271.52 800.54 261.32 L 800.54 261.32 L 800.54 261.32 Q 793.7 251.12 793.7 231.92 L 793.7 231.92 L 793.7 231.92 Q 793.7 228.56 794.66 218.96 L 794.66 218.96 L 794.66 218.96 Q 788.18 241.76 771.86 255.68 L 771.86 255.68 L 771.86 255.68 Q 755.54 269.6 739.82 269.6 L 739.82 269.6 L 739.82 269.6 Q 724.1 269.6 714.5 257.72 L 714.5 257.72 L 714.5 257.72 Q 704.9 245.84 704.9 224.84 L 704.9 224.84 L 704.9 224.84 Q 704.9 203.84 712.7 183.8 L 712.7 183.8 L 712.7 183.8 Q 720.5 163.76 736.22 149.12 L 736.22 149.12 L 736.22 149.12 Q 751.94 134.48 771.38 134.48 L 771.38 134.48 L 771.38 134.48 Q 779.78 134.48 789.86 137.84 L 789.86 137.84 L 789.86 137.84 Q 775.7 141.44 763.94 151.04 L 763.94 151.04 L 763.94 151.04 Q 752.18 160.64 745.22 172.76 Z  M 896.18 180.08 L 896.18 180.08 Q 906.02 157.76 921.02 145.88 L 921.02 145.88 L 921.02 145.88 Q 936.02 134 950.78 134 L 950.78 134 L 950.78 134 Q 965.54 134 975.14 145.88 L 975.14 145.88 L 975.14 145.88 Q 984.74 157.76 984.74 180.32 L 984.74 180.32 L 984.74 180.32 Q 984.74 216.08 965.9 241.4 L 965.9 241.4 L 965.9 241.4 Q 947.06 266.72 920.66 266.72 L 920.66 266.72 L 920.66 266.72 Q 911.3 266.72 901.46 262.88 L 901.46 262.88 L 901.46 262.88 Q 919.46 259.28 933.02 244.52 L 933.02 244.52 L 933.02 244.52 Q 946.58 229.76 952.7 212.84 L 952.7 212.84 L 952.7 212.84 Q 958.82 195.92 958.82 182.36 L 958.82 182.36 L 958.82 182.36 Q 958.82 168.8 954.02 161.6 L 954.02 161.6 L 954.02 161.6 Q 949.22 154.4 940.34 154.4 L 940.34 154.4 L 940.34 154.4 Q 923.78 154.4 910.82 172.76 L 910.82 172.76 L 910.82 172.76 Q 897.86 191.12 890.9 222.56 L 890.9 222.56 L 890.9 222.56 Q 883.94 254 883.94 287.48 L 883.94 287.48 L 883.94 287.48 Q 883.94 320.96 888.74 345.68 L 888.74 345.68 L 888.74 345.68 Q 874.1 344.96 865.7 339.2 L 865.7 339.2 L 865.7 339.2 Q 857.3 333.44 857.3 317.84 L 857.3 317.84 L 857.3 317.84 Q 857.3 312.08 864.62 257 L 864.62 257 L 864.62 257 Q 871.94 201.92 871.94 172.16 L 871.94 172.16 L 871.94 172.16 Q 871.94 142.4 868.34 122 L 868.34 122 L 868.34 122 Q 884.18 126.56 890.18 140.6 L 890.18 140.6 L 890.18 140.6 Q 896.18 154.64 896.18 180.08 L 896.18 180.08 Z  M 1058.18 82.88 L 1058.18 82.88 Q 1060.58 87.2 1061.3 91.16 L 1061.3 91.16 L 1061.3 91.16 Q 1062.02 95.12 1062.02 104.72 L 1062.02 104.72 L 1062.02 104.72 Q 1062.02 114.32 1054.1 168.56 L 1054.1 168.56 L 1054.1 168.56 Q 1046.18 222.8 1046.18 244.52 L 1046.18 244.52 L 1046.18 244.52 Q 1046.18 266.24 1049.54 274.16 L 1049.54 274.16 L 1049.54 274.16 Q 1034.66 268.88 1028.54 259.88 L 1028.54 259.88 L 1028.54 259.88 Q 1022.42 250.88 1022.42 238.76 L 1022.42 238.76 L 1022.42 238.76 Q 1022.42 226.64 1027.46 189.44 L 1027.46 189.44 L 1027.46 189.44 Q 1036.34 127.76 1036.34 93.92 L 1036.34 93.92 L 1036.34 93.92 Q 1036.34 86.72 1035.38 74.24 L 1035.38 74.24 L 1035.38 74.24 Q 1053.62 75.2 1058.18 82.88 L 1058.18 82.88 Z  M 1143.14 151.88 L 1143.14 151.88 L 1143.14 151.88 Q 1133.78 163.04 1129.1 179.24 L 1129.1 179.24 L 1129.1 179.24 Q 1124.42 195.44 1124.42 213.92 L 1124.42 213.92 L 1124.42 213.92 Q 1124.42 232.4 1130.66 243.68 L 1130.66 243.68 L 1130.66 243.68 Q 1136.9 254.96 1147.34 254.96 L 1147.34 254.96 L 1147.34 254.96 Q 1157.78 254.96 1167.86 248.72 L 1167.86 248.72 L 1167.86 248.72 Q 1177.94 242.48 1184.9 231.44 L 1184.9 231.44 L 1184.9 231.44 Q 1193.78 232.64 1193.78 237.92 L 1193.78 237.92 L 1193.78 237.92 Q 1187.3 249.92 1177.58 257.6 L 1177.58 257.6 L 1177.58 257.6 Q 1167.86 265.28 1159.46 267.8 L 1159.46 267.8 L 1159.46 267.8 Q 1151.06 270.32 1142.42 270.32 L 1142.42 270.32 L 1142.42 270.32 Q 1123.94 270.32 1111.22 255.8 L 1111.22 255.8 L 1111.22 255.8 Q 1098.5 241.28 1098.5 213.68 L 1098.5 213.68 L 1098.5 213.68 Q 1098.5 178.64 1117.46 153.44 L 1117.46 153.44 L 1117.46 153.44 Q 1136.42 128.24 1167.86 128.24 L 1167.86 128.24 L 1167.86 128.24 Q 1185.14 128.24 1194.02 137.24 L 1194.02 137.24 L 1194.02 137.24 Q 1202.9 146.24 1202.9 158.12 L 1202.9 158.12 L 1202.9 158.12 Q 1202.9 170 1196.3 178.4 L 1196.3 178.4 L 1196.3 178.4 Q 1189.7 186.8 1179.38 186.8 L 1179.38 186.8 L 1179.38 186.8 Q 1172.9 186.8 1168.34 184.64 L 1168.34 184.64 L 1168.34 184.64 Q 1172.18 180.32 1174.94 172.52 L 1174.94 172.52 L 1174.94 172.52 Q 1177.7 164.72 1177.7 157.28 L 1177.7 157.28 L 1177.7 157.28 Q 1177.7 140.72 1164.02 140.72 L 1164.02 140.72 L 1164.02 140.72 Q 1152.5 140.72 1143.14 151.88 Z  M 1322.66 187.88 L 1322.66 187.88 L 1322.66 187.88 Q 1322.66 164.48 1316.78 154.28 L 1316.78 154.28 L 1316.78 154.28 Q 1310.9 144.08 1299.98 144.08 L 1299.98 144.08 L 1299.98 144.08 Q 1289.06 144.08 1278.02 154.76 L 1278.02 154.76 L 1278.02 154.76 Q 1266.98 165.44 1260.62 181.16 L 1260.62 181.16 L 1260.62 181.16 Q 1254.26 196.88 1254.26 213.8 L 1254.26 213.8 L 1254.26 213.8 Q 1254.26 230.72 1260.74 243.08 L 1260.74 243.08 L 1260.74 243.08 Q 1267.22 255.44 1280.42 255.44 L 1280.42 255.44 L 1280.42 255.44 Q 1299.14 255.44 1310.9 233.36 L 1310.9 233.36 L 1310.9 233.36 Q 1322.66 211.28 1322.66 187.88 Z  M 1253.06 178.64 L 1253.06 178.64 Q 1262.18 152.72 1277.66 140.84 L 1277.66 140.84 L 1277.66 140.84 Q 1293.14 128.96 1309.1 128.96 L 1309.1 128.96 L 1309.1 128.96 Q 1325.06 128.96 1335.62 143 L 1335.62 143 L 1335.62 143 Q 1346.18 157.04 1346.18 181.04 L 1346.18 181.04 L 1346.18 181.04 Q 1346.18 207.44 1336.1 230 L 1336.1 230 L 1336.1 230 Q 1324.82 254.96 1303.46 264.8 L 1303.46 264.8 L 1303.46 264.8 Q 1291.94 270.32 1278.02 270.32 L 1278.02 270.32 L 1278.02 270.32 Q 1258.58 270.32 1243.94 254.12 L 1243.94 254.12 L 1243.94 254.12 Q 1229.3 237.92 1229.3 207.8 L 1229.3 207.8 L 1229.3 207.8 Q 1229.3 177.68 1242.26 155.6 L 1242.26 155.6 L 1242.26 155.6 Q 1255.22 133.52 1277.54 124.88 L 1277.54 124.88 L 1277.54 124.88 Q 1282.34 124.88 1282.34 129.68 L 1282.34 129.68 L 1282.34 129.68 Q 1258.58 145.28 1253.06 178.64 L 1253.06 178.64 Z  M 1492.1 162.32 L 1492.1 162.32 L 1492.1 162.32 Q 1492.1 173.36 1487.42 201.32 L 1487.42 201.32 L 1487.42 201.32 Q 1482.74 229.28 1482.74 242 L 1482.74 242 L 1482.74 242 Q 1482.74 254.72 1485.86 260.36 L 1485.86 260.36 L 1485.86 260.36 Q 1488.98 266 1496.42 270.08 L 1496.42 270.08 L 1496.42 270.08 Q 1493.3 270.32 1487.54 270.32 L 1487.54 270.32 L 1487.54 270.32 Q 1471.22 270.32 1464.38 264.2 L 1464.38 264.2 L 1464.38 264.2 Q 1457.54 258.08 1457.54 242.24 L 1457.54 242.24 L 1457.54 242.24 Q 1457.54 233.36 1462.34 206.36 L 1462.34 206.36 L 1462.34 206.36 Q 1467.14 179.36 1467.14 166.64 L 1467.14 166.64 L 1467.14 166.64 Q 1467.14 150.8 1457.54 150.8 L 1457.54 150.8 L 1457.54 150.8 Q 1442.18 150.8 1425.74 177.92 L 1425.74 177.92 L 1425.74 177.92 Q 1409.3 205.04 1409.3 243.2 L 1409.3 243.2 L 1409.3 243.2 Q 1409.3 258.32 1410.74 266.72 L 1410.74 266.72 L 1410.74 266.72 Q 1404.5 267.2 1403.3 267.2 L 1403.3 267.2 L 1403.3 267.2 Q 1382.18 267.2 1382.18 246.56 L 1382.18 246.56 L 1382.18 246.56 Q 1382.18 241.76 1387.22 209.6 L 1387.22 209.6 L 1387.22 209.6 Q 1392.26 177.44 1392.26 158.36 L 1392.26 158.36 L 1392.26 158.36 Q 1392.26 139.28 1388.18 123.2 L 1388.18 123.2 L 1388.18 123.2 Q 1402.34 128.72 1407.98 138.92 L 1407.98 138.92 L 1407.98 138.92 Q 1413.62 149.12 1413.62 162.2 L 1413.62 162.2 L 1413.62 162.2 Q 1413.62 175.28 1410.74 192.56 L 1410.74 192.56 L 1410.74 192.56 Q 1418.66 165.44 1435.58 146.84 L 1435.58 146.84 L 1435.58 146.84 Q 1452.5 128.24 1467.14 128.24 L 1467.14 128.24 L 1467.14 128.24 Q 1492.1 128.24 1492.1 162.32 Z  M 72.5 147.68 L 72.5 147.68 L 72.5 147.68 Q 79.7 154.16 88.46 160.52 L 88.46 160.52 L 88.46 160.52 Q 97.22 166.88 105.98 173.36 L 105.98 173.36 L 105.98 173.36 Q 114.74 179.84 121.94 186.56 L 121.94 186.56 L 121.94 186.56 Q 138.26 201.68 138.26 219.92 L 138.26 219.92 L 138.26 219.92 Q 138.26 242.48 121.1 257.6 L 121.1 257.6 L 121.1 257.6 Q 103.94 272.72 75.86 272.72 L 75.86 272.72 L 75.86 272.72 Q 47.78 272.72 32.66 260 L 32.66 260 L 32.66 260 Q 17.54 247.28 17.54 229.76 L 17.54 229.76 L 17.54 229.76 Q 17.54 216.8 25.22 208.76 L 25.22 208.76 L 25.22 208.76 Q 32.9 200.72 45.14 200.72 L 45.14 200.72 L 45.14 200.72 Q 48.5 200.72 51.62 201.68 L 51.62 201.68 L 51.62 201.68 Q 44.18 212.96 44.18 225.8 L 44.18 225.8 L 44.18 225.8 Q 44.18 238.64 53.06 247.76 L 53.06 247.76 L 53.06 247.76 Q 61.94 256.88 79.7 256.88 L 79.7 256.88 L 79.7 256.88 Q 92.42 256.88 102.38 249.08 L 102.38 249.08 L 102.38 249.08 Q 112.34 241.28 112.34 227.36 L 112.34 227.36 L 112.34 227.36 Q 112.34 218.24 106.34 209.48 L 106.34 209.48 L 106.34 209.48 Q 100.34 200.72 91.46 194 L 91.46 194 L 91.46 194 Q 82.58 187.28 72.02 179 L 72.02 179 L 72.02 179 Q 61.46 170.72 52.58 163.04 L 52.58 163.04 L 52.58 163.04 Q 43.7 155.36 37.7 144.32 L 37.7 144.32 L 37.7 144.32 Q 31.7 133.28 31.7 121.28 L 31.7 121.28 L 31.7 121.28 Q 31.7 98.48 47.18 85.16 L 47.18 85.16 L 47.18 85.16 Q 62.66 71.84 91.94 71.84 L 91.94 71.84 L 91.94 71.84 Q 115.7 71.84 129.26 84.44 L 129.26 84.44 L 129.26 84.44 Q 142.82 97.04 142.82 110.6 L 142.82 110.6 L 142.82 110.6 Q 142.82 124.16 135.5 132.8 L 135.5 132.8 L 135.5 132.8 Q 128.18 141.44 115.46 141.44 L 115.46 141.44 L 115.46 141.44 Q 111.14 141.44 107.06 140.48 L 107.06 140.48 L 107.06 140.48 Q 118.82 128 118.82 114.08 L 118.82 114.08 L 118.82 114.08 Q 118.82 100.16 110.18 93.08 L 110.18 93.08 L 110.18 93.08 Q 101.54 86 88.22 86 L 88.22 86 L 88.22 86 Q 74.9 86 65.54 93.68 L 65.54 93.68 L 65.54 93.68 Q 56.18 101.36 56.18 116.96 L 56.18 116.96 L 56.18 116.96 Q 56.18 132.56 72.5 147.68 Z  M 156.98 256.16 L 156.98 256.16 L 156.98 256.16 Q 156.98 251.6 170.18 222.2 L 170.18 222.2 L 170.18 222.2 Q 183.38 192.8 200.78 154.76 L 200.78 154.76 L 200.78 154.76 Q 218.18 116.72 224.42 100.4 L 224.42 100.4 L 229.7 86.72 L 229.7 86.72 Q 225.86 80.96 221.3 76.4 L 221.3 76.4 L 221.3 76.4 Q 228.74 73.52 235.46 73.52 L 235.46 73.52 L 235.46 73.52 Q 250.58 73.52 258.98 92.72 L 258.98 92.72 L 258.98 92.72 Q 264.26 104.96 273.14 147.44 L 273.14 147.44 L 273.14 147.44 Q 273.38 147.92 273.86 150.56 L 273.86 150.56 L 273.86 150.56 Q 274.34 153.2 278.78 174.92 L 278.78 174.92 L 278.78 174.92 Q 283.22 196.64 284.9 203.72 L 284.9 203.72 L 284.9 203.72 Q 286.58 210.8 290.66 225.44 L 290.66 225.44 L 290.66 225.44 Q 297.14 250.16 306.98 263.84 L 306.98 263.84 L 306.98 263.84 Q 295.7 270.56 288.38 270.56 L 288.38 270.56 L 288.38 270.56 Q 281.06 270.56 277.82 266.12 L 277.82 266.12 L 277.82 266.12 Q 274.58 261.68 271.82 252.44 L 271.82 252.44 L 271.82 252.44 Q 269.06 243.2 260.18 200.96 L 260.18 200.96 L 260.18 200.96 Q 254.9 209.12 239.06 209.6 L 239.06 209.6 L 196.34 211.28 L 196.34 211.28 Q 182.66 248.24 176.42 274.64 L 176.42 274.64 L 176.42 274.64 Q 156.98 266.48 156.98 256.16 Z  M 238.1 108.08 L 238.1 108.08 L 238.1 108.08 Q 210.5 173.6 202.82 193.28 L 202.82 193.28 L 258.5 193.28 L 258.5 193.28 Q 247.22 138.32 238.1 108.08 Z  M 1491.66 323.6 L 1491.66 323.6 L 1491.74 324.56 L 1491.74 324.56 Q 1491.74 327.6 1489.46 344.44 L 1489.46 344.44 L 1489.46 344.44 Q 1487.18 361.28 1487.18 372.56 L 1487.18 372.56 L 1487.18 372.56 Q 1487.18 377.6 1487.66 380.4 L 1487.66 380.4 L 1487.66 380.4 Q 1485.74 380.56 1485.58 380.56 L 1485.58 380.56 L 1485.58 380.56 Q 1481.98 380.56 1480.22 378.92 L 1480.22 378.92 L 1480.22 378.92 Q 1478.46 377.28 1478.46 373.56 L 1478.46 373.56 L 1478.46 373.56 Q 1478.46 369.84 1481.14 350.84 L 1481.14 350.84 L 1481.14 350.84 Q 1483.82 331.84 1483.82 323.72 L 1483.82 323.72 L 1483.82 323.72 Q 1483.82 315.6 1482.7 313.12 L 1482.7 313.12 L 1482.7 313.12 Q 1485.26 313.44 1487.46 315.08 L 1487.46 315.08 L 1487.46 315.08 Q 1489.66 316.72 1490.78 319.44 L 1490.78 319.44 L 1490.78 319.44 Q 1496.86 316.16 1504.34 316.16 L 1504.34 316.16 L 1504.34 316.16 Q 1511.82 316.16 1516.1 320.76 L 1516.1 320.76 L 1516.1 320.76 Q 1520.38 325.36 1520.38 332.08 L 1520.38 332.08 L 1520.38 332.08 Q 1520.38 340.64 1514.14 347.48 L 1514.14 347.48 L 1514.14 347.48 Q 1507.9 354.32 1497.34 354.32 L 1497.34 354.32 L 1497.34 354.32 Q 1494.94 354.32 1492.94 354 L 1492.94 354 L 1492.7 351.44 L 1492.7 351.44 Q 1498.06 351.44 1502.06 349.84 L 1502.06 349.84 L 1502.06 349.84 Q 1506.06 348.24 1508.14 345.6 L 1508.14 345.6 L 1508.14 345.6 Q 1512.22 340.48 1512.22 333.6 L 1512.22 333.6 L 1512.22 333.6 Q 1512.22 328.64 1509.06 325.32 L 1509.06 325.32 L 1509.06 325.32 Q 1505.9 322 1499.9 322 L 1499.9 322 L 1499.9 322 Q 1496.3 322 1491.66 323.6 Z  M 1538.06 347.88 L 1538.06 347.88 L 1538.06 347.88 Q 1535.74 351.92 1534.5 356.12 L 1534.5 356.12 L 1534.5 356.12 Q 1533.26 360.32 1533.26 364.16 L 1533.26 364.16 L 1533.26 364.16 Q 1533.26 368 1534.98 370.68 L 1534.98 370.68 L 1534.98 370.68 Q 1536.7 373.36 1539.9 373.36 L 1539.9 373.36 L 1539.9 373.36 Q 1544.38 373.36 1548.3 368.44 L 1548.3 368.44 L 1548.3 368.44 Q 1552.22 363.52 1554.34 356.52 L 1554.34 356.52 L 1554.34 356.52 Q 1556.46 349.52 1556.46 343.56 L 1556.46 343.56 L 1556.46 343.56 Q 1556.46 337.6 1555.98 333.76 L 1555.98 333.76 L 1555.98 333.76 Q 1557.9 333.6 1558.38 333.6 L 1558.38 333.6 L 1558.38 333.6 Q 1565.18 333.6 1565.18 340.56 L 1565.18 340.56 L 1565.18 340.56 Q 1565.18 342.08 1563.26 352.92 L 1563.26 352.92 L 1563.26 352.92 Q 1561.34 363.76 1561.34 370.28 L 1561.34 370.28 L 1561.34 370.28 Q 1561.34 376.8 1563.82 381.84 L 1563.82 381.84 L 1563.82 381.84 Q 1558.78 380.8 1556.5 377.4 L 1556.5 377.4 L 1556.5 377.4 Q 1554.22 374 1554.22 367.6 L 1554.22 367.6 L 1554.22 367.6 Q 1554.22 366.48 1554.54 363.28 L 1554.54 363.28 L 1554.54 363.28 Q 1552.38 370.88 1546.94 375.52 L 1546.94 375.52 L 1546.94 375.52 Q 1541.5 380.16 1536.26 380.16 L 1536.26 380.16 L 1536.26 380.16 Q 1531.02 380.16 1527.82 376.2 L 1527.82 376.2 L 1527.82 376.2 Q 1524.62 372.24 1524.62 365.24 L 1524.62 365.24 L 1524.62 365.24 Q 1524.62 358.24 1527.22 351.56 L 1527.22 351.56 L 1527.22 351.56 Q 1529.82 344.88 1535.06 340 L 1535.06 340 L 1535.06 340 Q 1540.3 335.12 1546.78 335.12 L 1546.78 335.12 L 1546.78 335.12 Q 1549.58 335.12 1552.94 336.24 L 1552.94 336.24 L 1552.94 336.24 Q 1548.22 337.44 1544.3 340.64 L 1544.3 340.64 L 1544.3 340.64 Q 1540.38 343.84 1538.06 347.88 Z  M 1591.26 340.92 L 1591.26 340.92 L 1591.26 340.92 Q 1588.14 344.64 1586.58 350.04 L 1586.58 350.04 L 1586.58 350.04 Q 1585.02 355.44 1585.02 361.6 L 1585.02 361.6 L 1585.02 361.6 Q 1585.02 367.76 1587.1 371.52 L 1587.1 371.52 L 1587.1 371.52 Q 1589.18 375.28 1592.66 375.28 L 1592.66 375.28 L 1592.66 375.28 Q 1596.14 375.28 1599.5 373.2 L 1599.5 373.2 L 1599.5 373.2 Q 1602.86 371.12 1605.18 367.44 L 1605.18 367.44 L 1605.18 367.44 Q 1608.14 367.84 1608.14 369.6 L 1608.14 369.6 L 1608.14 369.6 Q 1605.98 373.6 1602.74 376.16 L 1602.74 376.16 L 1602.74 376.16 Q 1599.5 378.72 1596.7 379.56 L 1596.7 379.56 L 1596.7 379.56 Q 1593.9 380.4 1591.02 380.4 L 1591.02 380.4 L 1591.02 380.4 Q 1584.86 380.4 1580.62 375.56 L 1580.62 375.56 L 1580.62 375.56 Q 1576.38 370.72 1576.38 361.52 L 1576.38 361.52 L 1576.38 361.52 Q 1576.38 349.84 1582.7 341.44 L 1582.7 341.44 L 1582.7 341.44 Q 1589.02 333.04 1599.5 333.04 L 1599.5 333.04 L 1599.5 333.04 Q 1605.26 333.04 1608.22 336.04 L 1608.22 336.04 L 1608.22 336.04 Q 1611.18 339.04 1611.18 343 L 1611.18 343 L 1611.18 343 Q 1611.18 346.96 1608.98 349.76 L 1608.98 349.76 L 1608.98 349.76 Q 1606.78 352.56 1603.34 352.56 L 1603.34 352.56 L 1603.34 352.56 Q 1601.18 352.56 1599.66 351.84 L 1599.66 351.84 L 1599.66 351.84 Q 1600.94 350.4 1601.86 347.8 L 1601.86 347.8 L 1601.86 347.8 Q 1602.78 345.2 1602.78 342.72 L 1602.78 342.72 L 1602.78 342.72 Q 1602.78 337.2 1598.22 337.2 L 1598.22 337.2 L 1598.22 337.2 Q 1594.38 337.2 1591.26 340.92 Z  M 1630.22 354.48 L 1630.22 354.48 Q 1632.7 343.04 1637.42 337.96 L 1637.42 337.96 L 1637.42 337.96 Q 1642.14 332.88 1646.62 332.88 L 1646.62 332.88 L 1646.62 332.88 Q 1651.1 332.88 1653.62 335.6 L 1653.62 335.6 L 1653.62 335.6 Q 1656.14 338.32 1656.14 343.24 L 1656.14 343.24 L 1656.14 343.24 Q 1656.14 348.16 1653.34 352.04 L 1653.34 352.04 L 1653.34 352.04 Q 1650.54 355.92 1645.66 357.76 L 1645.66 357.76 L 1646.62 360.72 L 1646.62 360.72 Q 1649.26 368.96 1654.3 377.04 L 1654.3 377.04 L 1654.3 377.04 Q 1659.34 385.12 1662.46 388.08 L 1662.46 388.08 L 1662.46 388.08 Q 1660.3 388.8 1658.34 388.8 L 1658.34 388.8 L 1658.34 388.8 Q 1656.38 388.8 1654.38 387.8 L 1654.38 387.8 L 1654.38 387.8 Q 1652.38 386.8 1650.9 385.56 L 1650.9 385.56 L 1650.9 385.56 Q 1649.42 384.32 1647.78 381.64 L 1647.78 381.64 L 1647.78 381.64 Q 1646.14 378.96 1645.18 377.12 L 1645.18 377.12 L 1645.18 377.12 Q 1644.22 375.28 1642.78 371.52 L 1642.78 371.52 L 1642.78 371.52 Q 1641.26 367.6 1638.54 359.68 L 1638.54 359.68 L 1638.54 359.68 Q 1637.5 359.76 1635.5 359.76 L 1635.5 359.76 L 1635.5 359.76 Q 1635.02 359.36 1635.02 357.2 L 1635.02 357.2 L 1635.02 357.2 Q 1638.62 357.12 1641.42 355.76 L 1641.42 355.76 L 1641.42 355.76 Q 1644.22 354.4 1645.66 352.32 L 1645.66 352.32 L 1645.66 352.32 Q 1648.7 348.08 1648.7 343.76 L 1648.7 343.76 L 1648.7 343.76 Q 1648.7 341.6 1647.7 340.2 L 1647.7 340.2 L 1647.7 340.2 Q 1646.7 338.8 1644.78 338.8 L 1644.78 338.8 L 1644.78 338.8 Q 1641.42 338.8 1637.98 343.24 L 1637.98 343.24 L 1637.98 343.24 Q 1634.54 347.68 1632.18 355.44 L 1632.18 355.44 L 1632.18 355.44 Q 1629.82 363.2 1629.82 371.68 L 1629.82 371.68 L 1629.82 371.68 Q 1629.82 376.4 1630.3 379.2 L 1630.3 379.2 L 1630.3 379.2 Q 1628.38 379.36 1628.14 379.36 L 1628.14 379.36 L 1628.14 379.36 Q 1624.38 379.36 1622.58 377.76 L 1622.58 377.76 L 1622.58 377.76 Q 1620.78 376.16 1620.78 372.76 L 1620.78 372.76 L 1620.78 372.76 Q 1620.78 369.36 1622.14 359.68 L 1622.14 359.68 L 1622.14 359.68 Q 1626.46 329.92 1626.46 314.48 L 1626.46 314.48 L 1626.46 314.48 Q 1626.46 307.52 1625.5 305.12 L 1625.5 305.12 L 1625.5 305.12 Q 1630.14 306.8 1632.02 310.08 L 1632.02 310.08 L 1632.02 310.08 Q 1633.9 313.36 1633.9 319.12 L 1633.9 319.12 L 1633.9 319.12 Q 1633.9 323.12 1632.34 335.92 L 1632.34 335.92 L 1632.34 335.92 Q 1630.78 348.72 1630.22 354.48 L 1630.22 354.48 Z  M 1063.34 352 L 1063.34 352 L 1056.22 351.92 L 1056.22 351.92 Q 1052.3 351.92 1050.22 352.08 L 1050.22 352.08 L 1050.22 352.08 Q 1048.94 363.44 1048.94 372.48 L 1048.94 372.48 L 1048.94 372.48 Q 1067.42 372.48 1075.66 370.08 L 1075.66 370.08 L 1075.66 370.08 Q 1075.1 374.72 1072.5 377.28 L 1072.5 377.28 L 1072.5 377.28 Q 1069.9 379.84 1065.98 379.84 L 1065.98 379.84 L 1065.98 379.84 Q 1064.86 379.84 1059.06 379.32 L 1059.06 379.32 L 1059.06 379.32 Q 1053.26 378.8 1047.82 378.8 L 1047.82 378.8 L 1047.82 378.8 Q 1042.38 378.8 1036.94 379.84 L 1036.94 379.84 L 1036.94 379.84 Q 1037.58 377.2 1039.98 375.28 L 1039.98 375.28 L 1039.98 375.28 Q 1039.9 374.8 1039.9 372.24 L 1039.9 372.24 L 1039.9 372.24 Q 1039.9 369.68 1042.22 353.28 L 1042.22 353.28 L 1042.22 353.28 Q 1039.98 353.84 1038.38 354.48 L 1038.38 354.48 L 1038.38 354.48 Q 1038.22 353.04 1038.22 352.16 L 1038.22 352.16 L 1038.22 352.16 Q 1038.22 347.28 1043.18 346.08 L 1043.18 346.08 L 1043.18 346.08 Q 1045.02 332.64 1045.18 324.64 L 1045.18 324.64 L 1045.18 324.64 Q 1043.1 324.48 1042.26 323.6 L 1042.26 323.6 L 1042.26 323.6 Q 1041.42 322.72 1041.42 320.44 L 1041.42 320.44 L 1041.42 320.44 Q 1041.42 318.16 1042.06 316.4 L 1042.06 316.4 L 1042.06 316.4 Q 1050.3 317.52 1059.98 317.52 L 1059.98 317.52 L 1059.98 317.52 Q 1069.66 317.52 1078.46 315.76 L 1078.46 315.76 L 1078.46 315.76 Q 1077.98 318.8 1076.26 320.68 L 1076.26 320.68 L 1076.26 320.68 Q 1074.54 322.56 1070.78 323.36 L 1070.78 323.36 L 1070.78 323.36 Q 1067.02 324.16 1064.54 324.32 L 1064.54 324.32 L 1064.54 324.32 Q 1060.06 324.72 1053.5 324.72 L 1053.5 324.72 L 1053.5 324.72 Q 1053.42 327.6 1051.02 345.76 L 1051.02 345.76 L 1051.02 345.76 Q 1055.98 345.92 1058.22 345.92 L 1058.22 345.92 L 1058.22 345.92 Q 1065.26 345.92 1068.22 343.6 L 1068.22 343.6 L 1068.22 343.6 Q 1068.38 344.88 1068.38 345.68 L 1068.38 345.68 L 1068.38 345.68 Q 1068.38 352 1063.34 352 Z  M 1118.46 381.6 L 1118.46 381.6 L 1118.46 381.6 Q 1112.78 381.6 1108.82 376.4 L 1108.82 376.4 L 1108.82 376.4 Q 1104.86 371.2 1101.18 361.68 L 1101.18 361.68 L 1101.18 361.68 Q 1093.1 370.88 1089.66 382.56 L 1089.66 382.56 L 1089.66 382.56 Q 1085.26 377.68 1085.26 373.76 L 1085.26 373.76 L 1085.26 373.76 Q 1085.26 370.88 1088.7 366.88 L 1088.7 366.88 L 1088.7 366.88 Q 1092.14 362.88 1099.18 356.24 L 1099.18 356.24 L 1099.18 356.24 Q 1098.38 353.84 1097.74 352.24 L 1097.74 352.24 L 1097.74 352.24 Q 1097.1 350.64 1096.46 348.92 L 1096.46 348.92 L 1096.46 348.92 Q 1095.82 347.2 1095.5 346.48 L 1095.5 346.48 L 1095.5 346.48 Q 1095.18 345.76 1094.58 344.24 L 1094.58 344.24 L 1094.58 344.24 Q 1093.98 342.72 1093.58 341.96 L 1093.58 341.96 L 1093.58 341.96 Q 1093.18 341.2 1092.58 339.96 L 1092.58 339.96 L 1092.58 339.96 Q 1091.98 338.72 1091.5 337.92 L 1091.5 337.92 L 1091.5 337.92 Q 1090.62 336.32 1089.26 334.4 L 1089.26 334.4 L 1089.26 334.4 Q 1090.3 333.52 1091.98 332.92 L 1091.98 332.92 L 1091.98 332.92 Q 1093.66 332.32 1094.78 332.32 L 1094.78 332.32 L 1094.78 332.32 Q 1098.54 332.32 1101.18 338.08 L 1101.18 338.08 L 1101.18 338.08 Q 1102.3 340.64 1105.42 350.4 L 1105.42 350.4 L 1105.42 350.4 Q 1118.06 338.08 1119.26 331.6 L 1119.26 331.6 L 1119.26 331.6 Q 1122.38 335.52 1122.38 338.04 L 1122.38 338.04 L 1122.38 338.04 Q 1122.38 340.56 1120.94 342.76 L 1120.94 342.76 L 1120.94 342.76 Q 1119.5 344.96 1117.9 346.44 L 1117.9 346.44 L 1117.9 346.44 Q 1116.3 347.92 1112.7 350.92 L 1112.7 350.92 L 1112.7 350.92 Q 1109.1 353.92 1107.18 355.68 L 1107.18 355.68 L 1107.18 355.68 Q 1113.9 374.64 1122.38 380.88 L 1122.38 380.88 L 1122.38 380.88 Q 1120.22 381.6 1118.46 381.6 Z  M 1143.42 350.32 L 1143.42 350.32 Q 1146.7 342.88 1151.7 338.92 L 1151.7 338.92 L 1151.7 338.92 Q 1156.7 334.96 1161.62 334.96 L 1161.62 334.96 L 1161.62 334.96 Q 1166.54 334.96 1169.74 338.92 L 1169.74 338.92 L 1169.74 338.92 Q 1172.94 342.88 1172.94 350.4 L 1172.94 350.4 L 1172.94 350.4 Q 1172.94 362.32 1166.66 370.76 L 1166.66 370.76 L 1166.66 370.76 Q 1160.38 379.2 1151.58 379.2 L 1151.58 379.2 L 1151.58 379.2 Q 1148.46 379.2 1145.18 377.92 L 1145.18 377.92 L 1145.18 377.92 Q 1151.18 376.72 1155.7 371.8 L 1155.7 371.8 L 1155.7 371.8 Q 1160.22 366.88 1162.26 361.24 L 1162.26 361.24 L 1162.26 361.24 Q 1164.3 355.6 1164.3 351.08 L 1164.3 351.08 L 1164.3 351.08 Q 1164.3 346.56 1162.7 344.16 L 1162.7 344.16 L 1162.7 344.16 Q 1161.1 341.76 1158.14 341.76 L 1158.14 341.76 L 1158.14 341.76 Q 1152.62 341.76 1148.3 347.88 L 1148.3 347.88 L 1148.3 347.88 Q 1143.98 354 1141.66 364.48 L 1141.66 364.48 L 1141.66 364.48 Q 1139.34 374.96 1139.34 386.12 L 1139.34 386.12 L 1139.34 386.12 Q 1139.34 397.28 1140.94 405.52 L 1140.94 405.52 L 1140.94 405.52 Q 1136.06 405.28 1133.26 403.36 L 1133.26 403.36 L 1133.26 403.36 Q 1130.46 401.44 1130.46 396.24 L 1130.46 396.24 L 1130.46 396.24 Q 1130.46 394.32 1132.9 375.96 L 1132.9 375.96 L 1132.9 375.96 Q 1135.34 357.6 1135.34 347.68 L 1135.34 347.68 L 1135.34 347.68 Q 1135.34 337.76 1134.14 330.96 L 1134.14 330.96 L 1134.14 330.96 Q 1139.42 332.48 1141.42 337.16 L 1141.42 337.16 L 1141.42 337.16 Q 1143.42 341.84 1143.42 350.32 L 1143.42 350.32 Z  M 1195.82 347.88 L 1195.82 347.88 L 1195.82 347.88 Q 1193.5 351.92 1192.26 356.12 L 1192.26 356.12 L 1192.26 356.12 Q 1191.02 360.32 1191.02 364.16 L 1191.02 364.16 L 1191.02 364.16 Q 1191.02 368 1192.74 370.68 L 1192.74 370.68 L 1192.74 370.68 Q 1194.46 373.36 1197.66 373.36 L 1197.66 373.36 L 1197.66 373.36 Q 1202.14 373.36 1206.06 368.44 L 1206.06 368.44 L 1206.06 368.44 Q 1209.98 363.52 1212.1 356.52 L 1212.1 356.52 L 1212.1 356.52 Q 1214.22 349.52 1214.22 343.56 L 1214.22 343.56 L 1214.22 343.56 Q 1214.22 337.6 1213.74 333.76 L 1213.74 333.76 L 1213.74 333.76 Q 1215.66 333.6 1216.14 333.6 L 1216.14 333.6 L 1216.14 333.6 Q 1222.94 333.6 1222.94 340.56 L 1222.94 340.56 L 1222.94 340.56 Q 1222.94 342.08 1221.02 352.92 L 1221.02 352.92 L 1221.02 352.92 Q 1219.1 363.76 1219.1 370.28 L 1219.1 370.28 L 1219.1 370.28 Q 1219.1 376.8 1221.58 381.84 L 1221.58 381.84 L 1221.58 381.84 Q 1216.54 380.8 1214.26 377.4 L 1214.26 377.4 L 1214.26 377.4 Q 1211.98 374 1211.98 367.6 L 1211.98 367.6 L 1211.98 367.6 Q 1211.98 366.48 1212.3 363.28 L 1212.3 363.28 L 1212.3 363.28 Q 1210.14 370.88 1204.7 375.52 L 1204.7 375.52 L 1204.7 375.52 Q 1199.26 380.16 1194.02 380.16 L 1194.02 380.16 L 1194.02 380.16 Q 1188.78 380.16 1185.58 376.2 L 1185.58 376.2 L 1185.58 376.2 Q 1182.38 372.24 1182.38 365.24 L 1182.38 365.24 L 1182.38 365.24 Q 1182.38 358.24 1184.98 351.56 L 1184.98 351.56 L 1184.98 351.56 Q 1187.58 344.88 1192.82 340 L 1192.82 340 L 1192.82 340 Q 1198.06 335.12 1204.54 335.12 L 1204.54 335.12 L 1204.54 335.12 Q 1207.34 335.12 1210.7 336.24 L 1210.7 336.24 L 1210.7 336.24 Q 1205.98 337.44 1202.06 340.64 L 1202.06 340.64 L 1202.06 340.64 Q 1198.14 343.84 1195.82 347.88 Z  M 1272.38 344.4 L 1272.38 344.4 L 1272.38 344.4 Q 1272.38 348.08 1270.82 357.4 L 1270.82 357.4 L 1270.82 357.4 Q 1269.26 366.72 1269.26 370.96 L 1269.26 370.96 L 1269.26 370.96 Q 1269.26 375.2 1270.3 377.08 L 1270.3 377.08 L 1270.3 377.08 Q 1271.34 378.96 1273.82 380.32 L 1273.82 380.32 L 1273.82 380.32 Q 1272.78 380.4 1270.86 380.4 L 1270.86 380.4 L 1270.86 380.4 Q 1265.42 380.4 1263.14 378.36 L 1263.14 378.36 L 1263.14 378.36 Q 1260.86 376.32 1260.86 371.04 L 1260.86 371.04 L 1260.86 371.04 Q 1260.86 368.08 1262.46 359.08 L 1262.46 359.08 L 1262.46 359.08 Q 1264.06 350.08 1264.06 345.84 L 1264.06 345.84 L 1264.06 345.84 Q 1264.06 340.56 1260.86 340.56 L 1260.86 340.56 L 1260.86 340.56 Q 1255.74 340.56 1250.26 349.6 L 1250.26 349.6 L 1250.26 349.6 Q 1244.78 358.64 1244.78 371.36 L 1244.78 371.36 L 1244.78 371.36 Q 1244.78 376.4 1245.26 379.2 L 1245.26 379.2 L 1245.26 379.2 Q 1243.18 379.36 1242.78 379.36 L 1242.78 379.36 L 1242.78 379.36 Q 1235.74 379.36 1235.74 372.48 L 1235.74 372.48 L 1235.74 372.48 Q 1235.74 370.88 1237.42 360.16 L 1237.42 360.16 L 1237.42 360.16 Q 1239.1 349.44 1239.1 343.08 L 1239.1 343.08 L 1239.1 343.08 Q 1239.1 336.72 1237.74 331.36 L 1237.74 331.36 L 1237.74 331.36 Q 1242.46 333.2 1244.34 336.6 L 1244.34 336.6 L 1244.34 336.6 Q 1246.22 340 1246.22 344.36 L 1246.22 344.36 L 1246.22 344.36 Q 1246.22 348.72 1245.26 354.48 L 1245.26 354.48 L 1245.26 354.48 Q 1247.9 345.44 1253.54 339.24 L 1253.54 339.24 L 1253.54 339.24 Q 1259.18 333.04 1264.06 333.04 L 1264.06 333.04 L 1264.06 333.04 Q 1272.38 333.04 1272.38 344.4 Z  M 1301.7 336.96 L 1301.7 336.96 L 1301.7 336.96 Q 1299.02 336.96 1296.9 338.64 L 1296.9 338.64 L 1296.9 338.64 Q 1294.78 340.32 1294.78 343.24 L 1294.78 343.24 L 1294.78 343.24 Q 1294.78 346.16 1296.74 348.72 L 1296.74 348.72 L 1296.74 348.72 Q 1298.7 351.28 1301.5 353.28 L 1301.5 353.28 L 1301.5 353.28 Q 1304.3 355.28 1307.18 357.36 L 1307.18 357.36 L 1307.18 357.36 Q 1313.9 362.32 1313.9 368 L 1313.9 368 L 1313.9 368 Q 1313.9 373.68 1309.34 377.24 L 1309.34 377.24 L 1309.34 377.24 Q 1304.78 380.8 1297.7 380.8 L 1297.7 380.8 L 1297.7 380.8 Q 1290.62 380.8 1286.74 378 L 1286.74 378 L 1286.74 378 Q 1282.86 375.2 1282.86 371.4 L 1282.86 371.4 L 1282.86 371.4 Q 1282.86 367.6 1284.78 365.44 L 1284.78 365.44 L 1284.78 365.44 Q 1286.7 363.28 1289.42 363.28 L 1289.42 363.28 L 1289.42 363.28 Q 1290.86 363.28 1292.14 363.92 L 1292.14 363.92 L 1292.14 363.92 Q 1290.38 366.16 1290.38 369.2 L 1290.38 369.2 L 1290.38 369.2 Q 1290.38 372.24 1292.26 374.32 L 1292.26 374.32 L 1292.26 374.32 Q 1294.14 376.4 1297.46 376.4 L 1297.46 376.4 L 1297.46 376.4 Q 1300.78 376.4 1303.1 374.68 L 1303.1 374.68 L 1303.1 374.68 Q 1305.42 372.96 1305.42 370.32 L 1305.42 370.32 L 1305.42 370.32 Q 1305.42 367.68 1304.06 365.68 L 1304.06 365.68 L 1304.06 365.68 Q 1302.7 363.68 1300.66 362.24 L 1300.66 362.24 L 1300.66 362.24 Q 1298.62 360.8 1296.22 359.04 L 1296.22 359.04 L 1296.22 359.04 Q 1293.82 357.28 1291.78 355.56 L 1291.78 355.56 L 1291.78 355.56 Q 1289.74 353.84 1288.38 351.24 L 1288.38 351.24 L 1288.38 351.24 Q 1287.02 348.64 1287.02 345.52 L 1287.02 345.52 L 1287.02 345.52 Q 1287.02 339.84 1291.34 336.2 L 1291.34 336.2 L 1291.34 336.2 Q 1295.66 332.56 1302.22 332.56 L 1302.22 332.56 L 1302.22 332.56 Q 1308.78 332.56 1311.82 335.28 L 1311.82 335.28 L 1311.82 335.28 Q 1314.86 338 1314.86 341.4 L 1314.86 341.4 L 1314.86 341.4 Q 1314.86 344.8 1313.18 347 L 1313.18 347 L 1313.18 347 Q 1311.5 349.2 1308.86 349.2 L 1308.86 349.2 L 1308.86 349.2 Q 1307.58 349.2 1305.9 348.48 L 1305.9 348.48 L 1305.9 348.48 Q 1307.98 345.92 1307.98 342.96 L 1307.98 342.96 L 1307.98 342.96 Q 1307.98 340 1306.18 338.48 L 1306.18 338.48 L 1306.18 338.48 Q 1304.38 336.96 1301.7 336.96 Z  M 1335.5 380.4 L 1335.5 380.4 Q 1330.94 378.8 1329.14 375.48 L 1329.14 375.48 L 1329.14 375.48 Q 1327.34 372.16 1327.34 367.44 L 1327.34 367.44 L 1327.34 367.44 Q 1327.34 362.72 1328.62 353.92 L 1328.62 353.92 L 1328.62 353.92 Q 1329.9 345.12 1329.9 340.24 L 1329.9 340.24 L 1329.9 340.24 Q 1329.9 335.36 1329.42 332.72 L 1329.42 332.72 L 1329.42 332.72 Q 1330.86 332.56 1331.74 332.56 L 1331.74 332.56 L 1331.74 332.56 Q 1335.34 332.56 1336.94 334.16 L 1336.94 334.16 L 1336.94 334.16 Q 1338.54 335.76 1338.54 339.44 L 1338.54 339.44 L 1338.54 339.44 Q 1338.54 340.64 1336.58 352.04 L 1336.58 352.04 L 1336.58 352.04 Q 1334.62 363.44 1334.58 370.84 L 1334.58 370.84 L 1334.58 370.84 Q 1334.54 378.24 1335.5 380.4 L 1335.5 380.4 Z  M 1336.7 324.64 L 1336.7 324.64 L 1336.7 324.64 Q 1329.98 324.64 1329.98 320.08 L 1329.98 320.08 L 1329.98 320.08 Q 1329.98 318.48 1331.18 315.6 L 1331.18 315.6 L 1331.18 315.6 Q 1332.94 315.28 1334.22 315.28 L 1334.22 315.28 L 1334.22 315.28 Q 1340.94 315.28 1340.94 319.84 L 1340.94 319.84 L 1340.94 319.84 Q 1340.94 321.44 1339.74 324.32 L 1339.74 324.32 L 1339.74 324.32 Q 1337.98 324.64 1336.7 324.64 Z  M 1381.18 352.92 L 1381.18 352.92 L 1381.18 352.92 Q 1381.18 345.12 1379.22 341.72 L 1379.22 341.72 L 1379.22 341.72 Q 1377.26 338.32 1373.62 338.32 L 1373.62 338.32 L 1373.62 338.32 Q 1369.98 338.32 1366.3 341.88 L 1366.3 341.88 L 1366.3 341.88 Q 1362.62 345.44 1360.5 350.68 L 1360.5 350.68 L 1360.5 350.68 Q 1358.38 355.92 1358.38 361.56 L 1358.38 361.56 L 1358.38 361.56 Q 1358.38 367.2 1360.54 371.32 L 1360.54 371.32 L 1360.54 371.32 Q 1362.7 375.44 1367.1 375.44 L 1367.1 375.44 L 1367.1 375.44 Q 1373.34 375.44 1377.26 368.08 L 1377.26 368.08 L 1377.26 368.08 Q 1381.18 360.72 1381.18 352.92 Z  M 1357.98 349.84 L 1357.98 349.84 Q 1361.02 341.2 1366.18 337.24 L 1366.18 337.24 L 1366.18 337.24 Q 1371.34 333.28 1376.66 333.28 L 1376.66 333.28 L 1376.66 333.28 Q 1381.98 333.28 1385.5 337.96 L 1385.5 337.96 L 1385.5 337.96 Q 1389.02 342.64 1389.02 350.64 L 1389.02 350.64 L 1389.02 350.64 Q 1389.02 359.44 1385.66 366.96 L 1385.66 366.96 L 1385.66 366.96 Q 1381.9 375.28 1374.78 378.56 L 1374.78 378.56 L 1374.78 378.56 Q 1370.94 380.4 1366.3 380.4 L 1366.3 380.4 L 1366.3 380.4 Q 1359.82 380.4 1354.94 375 L 1354.94 375 L 1354.94 375 Q 1350.06 369.6 1350.06 359.56 L 1350.06 359.56 L 1350.06 359.56 Q 1350.06 349.52 1354.38 342.16 L 1354.38 342.16 L 1354.38 342.16 Q 1358.7 334.8 1366.14 331.92 L 1366.14 331.92 L 1366.14 331.92 Q 1367.74 331.92 1367.74 333.52 L 1367.74 333.52 L 1367.74 333.52 Q 1359.82 338.72 1357.98 349.84 L 1357.98 349.84 Z  M 1437.66 344.4 L 1437.66 344.4 L 1437.66 344.4 Q 1437.66 348.08 1436.1 357.4 L 1436.1 357.4 L 1436.1 357.4 Q 1434.54 366.72 1434.54 370.96 L 1434.54 370.96 L 1434.54 370.96 Q 1434.54 375.2 1435.58 377.08 L 1435.58 377.08 L 1435.58 377.08 Q 1436.62 378.96 1439.1 380.32 L 1439.1 380.32 L 1439.1 380.32 Q 1438.06 380.4 1436.14 380.4 L 1436.14 380.4 L 1436.14 380.4 Q 1430.7 380.4 1428.42 378.36 L 1428.42 378.36 L 1428.42 378.36 Q 1426.14 376.32 1426.14 371.04 L 1426.14 371.04 L 1426.14 371.04 Q 1426.14 368.08 1427.74 359.08 L 1427.74 359.08 L 1427.74 359.08 Q 1429.34 350.08 1429.34 345.84 L 1429.34 345.84 L 1429.34 345.84 Q 1429.34 340.56 1426.14 340.56 L 1426.14 340.56 L 1426.14 340.56 Q 1421.02 340.56 1415.54 349.6 L 1415.54 349.6 L 1415.54 349.6 Q 1410.06 358.64 1410.06 371.36 L 1410.06 371.36 L 1410.06 371.36 Q 1410.06 376.4 1410.54 379.2 L 1410.54 379.2 L 1410.54 379.2 Q 1408.46 379.36 1408.06 379.36 L 1408.06 379.36 L 1408.06 379.36 Q 1401.02 379.36 1401.02 372.48 L 1401.02 372.48 L 1401.02 372.48 Q 1401.02 370.88 1402.7 360.16 L 1402.7 360.16 L 1402.7 360.16 Q 1404.38 349.44 1404.38 343.08 L 1404.38 343.08 L 1404.38 343.08 Q 1404.38 336.72 1403.02 331.36 L 1403.02 331.36 L 1403.02 331.36 Q 1407.74 333.2 1409.62 336.6 L 1409.62 336.6 L 1409.62 336.6 Q 1411.5 340 1411.5 344.36 L 1411.5 344.36 L 1411.5 344.36 Q 1411.5 348.72 1410.54 354.48 L 1410.54 354.48 L 1410.54 354.48 Q 1413.18 345.44 1418.82 339.24 L 1418.82 339.24 L 1418.82 339.24 Q 1424.46 333.04 1429.34 333.04 L 1429.34 333.04 L 1429.34 333.04 Q 1437.66 333.04 1437.66 344.4 Z " fill-rule="evenodd" fill="rgb(255,255,255)"/></g></svg>